<svg xmlns="http://www.w3.org/2000/svg" id="Layer_1" viewBox="0 0 600 400"><defs><style>      .st0 {        fill: #fff;      }      .st0, .st1, .st2 {        fill-rule: evenodd;      }      .st1 {        fill: #00539a;      }      .st2 {        fill: #e21936;      }    </style></defs><polygon class="st2" points="0 200 600 200 600 400 0 400 0 200 0 200"></polygon><polygon class="st1" points="0 0 200 0 200 200 0 200 0 0 0 0"></polygon><polygon class="st0" points="200 0 600 0 600 200 200 200 200 0 200 0"></polygon><polygon class="st0" points="100 50.2 111.2 84.8 147.5 84.7 118.1 106 129.4 140.6 100 119.1 70.6 140.6 81.9 106 52.5 84.7 88.8 84.8 100 50.2 100 50.2"></polygon></svg>