<svg xmlns="http://www.w3.org/2000/svg" xmlns:xlink="http://www.w3.org/1999/xlink" id="Layer_1" viewBox="0 0 600 400"><defs><style>      .st0 {        stroke: #966200;        stroke-linecap: round;        stroke-width: .2px;      }      .st0, .st1 {        fill: none;        stroke-miterlimit: 10;      }      .st2 {        fill: url(#linear-gradient1);      }      .st3 {        fill: #ffe742;      }      .st4 {        fill: url(#linear-gradient);      }      .st5 {        fill: #ffce29;      }      .st6 {        fill: #fff;      }      .st7 {        fill: #e40001;      }      .st1 {        stroke: #ffe742;        stroke-width: .7px;      }      .st8 {        fill: #1d86bf;      }      .st9 {        fill: #1e6d50;      }    </style><linearGradient id="linear-gradient" x1="100" y1="10.9" x2="100" y2="829.6" gradientUnits="userSpaceOnUse"><stop offset="0" stop-color="#d91023"></stop><stop offset="1" stop-color="#6a1921"></stop></linearGradient><linearGradient id="linear-gradient1" x1="500" x2="500" xlink:href="#linear-gradient"></linearGradient></defs><rect class="st4" width="200" height="400"></rect><rect class="st6" x="200" width="200" height="400"></rect><rect class="st2" x="400" width="200" height="400"></rect><path class="st9" d="M323.7,144.7c.4-.7.5-1.7.1-2.4-.4-.7-1.4-1-2-.4.7-.8,1.4-1.8,1.4-2.9,0-1.1-.8-2.3-1.8-2.1,1.1-1.3.6-3.7-.9-4.4.4-1-.1-2.2-1-2.6s-2,0-2.4,1c.1-.6,0-1.3-.4-1.8-.4-.4-1.2-.5-1.6,0,0-1-.2-2.1-.8-2.9-.6-.8-1.9-1-2.5-.2-.4-1.1-.9-2.2-1.8-2.9s-2.4-.5-2.9.5c-.3-1-1.1-1.8-2-2-.9-.2-2,.2-2.6,1-.3-.7-1.1-1.2-1.9-1.1s-1.4.7-1.6,1.4c-.2-.6-.8-1-1.3-.9-.6,0-1.1.6-1.2,1.2-.5-.8-1.5-1.3-2.4-1.1-.5,0-.8.4-1.3.5-.4,0-.7-.1-1.2,0-1.6.2-4.1,1.1-5.4,2-.7.5-1.3,1.4-1.2,2.3-.1-.8-1.2-.7-1.8-.3-1.5,1-2.6,2.7-2.9,4.6,0-.5-.5-.9-1-.8-.5.1-.9.7-1.1,1.3-.3.8-.3,1.8-.2,2.6-.6-.7-1.6.2-1.7,1.1,0,.9.3,1.8.1,2.7-.3-.5-.8-.7-1.3-.7-.5,1.7-.3,3.6.6,5.1-.4-.2-.8-.3-1.2-.3-.2,2,.5,4.2,1.8,5.6-.6-.2-1.2-.6-1.7-1,.2,2.1,1.2,2.8,2.3,4.1.8,1,1.1,2.3,2.7,2-.6,0-.8,1.1-.4,1.6s1.1.6,1.7.6c.6,0,1.2-.2,1.8,0-.3.6.2,1.3.7,1.6.6.3,1.2.2,1.8.1,0,0,.6.8.7.9.5.4.9.1,1.4.3.8.3,1.6.9,2.6,1,2.8.3,6,0,8.3-1.9-.2.5-.3,1.1-.2,1.7.8,0,1.4-.7,1.5-1.6.5,1,1.4,1.6,2.4,1.7,0-.6,0-1.2-.5-1.6,1.8,1.3,4.2,1.9,6.3,1.4,1.2-.3,2.7-1.3,2.3-2.7,1.6,1.3,4.3.4,5-1.7.8,0,1.5,0,2.3-.1.6-.1,1.3-.5,1.6-1.1.3-.7-.3-1.6-.9-1.4,1.7-.5,3.2-1.6,4.2-3.1.3-.5.6-1.1.5-1.7,0-.6-.8-1.1-1.2-.8.6-.5,1.2-1,1.6-1.8ZM312,147c-.2-.9-1.4-1.1-2.1-.6-.7.6-.9,1.5-1.1,2.4-.8-2.1-2,1.1-2.4,1.5-.9.9-2.9-1.1-3.2,1-.5-.8-1.6-.8-2.3-.4-.7.5-1.2,1.3-1.6,2.1-.9-2-3.6-4.1-5.3-1.7-.2-.5-.6-.9-1.1-1.1-.7-.3-1.5-.1-2,.4.2-.9.4-1.8,0-2.6-.4-.8-1.7-.9-2,0,.1-.7.2-1.4,0-2.1s-.9-1.2-1.5-1c.3-.6.2-1.5-.3-2-.3-.4-.8-.5-1.2-.5-.2,0-.4.1-.6.1.2,0,.4-.1.6-.1.3-.2.6-.5.7-.9,0-.6-.4-1.3-.9-1.4.7.3,1.5-.5,1.6-1.3.1-.8-.2-1.6-.5-2.4.6.7,1.8-.1,1.6-1,.5.6,1.5.5,2.1,0,.6-.6.8-1.4.7-2.3.6,1.1,2.5.6,2.6-.7,0,.9,1.1,1.4,1.8,1,.8-.3,1.2-1.2,1.6-1.9,0,.6.5,1.2,1.1,1.2.6,0,1.2-.4,1.3-1,0,.7.7,1.3,1.3,1.4.7,0,1.3-.4,1.5-1.1,0,.7.6,1.3,1.2,1.3s1.2-.4,1.8-.7c-.5.7.2,1.7,1,1.9.8.2,1.5-.2,2.2-.6-.6.6-.6,1.7-.2,2.3.5.7,1.5.8,2.1.4-.5.6-.5,1.6-.1,2.3.4.7,1.2,1,2,.8-.6.3-1,1.1-.8,1.8.1.7.8,1.3,1.4,1.3-1,1-1.4,2.7-.9,4.1Z"></path><path class="st8" d="M272.8,204.5c1.4-8.9-.8-18.7-5.3-26,4.8-2.3,8.3-7.6,9-13.5,3.1,4.2,8.1,6.4,12.8,5.7,2.4-.4,4.8-1.5,6.7-3.2,1.3-1.1,4.3-3.9,4.3-6.1-.6,12.9.7,25.8,0,38.7,0,1.5-.2,3,.3,4.4-9.3,0-18.5,0-27.8,0Z"></path><path class="st7" d="M267.3,223.4c.7-4.1,2.6-7.9,3.9-11.8.8-2.3,1.1-4.8,1.7-7.2,18,.1,36,.2,54,0,1.3,5.9,4.3,11.3,5.3,17.3.6,3.5.6,7.2-.1,10.7-.9,4.2-2.8,8.2-5.8,10.6-3.9,3.1-9,3.2-13.6,4.3-5,1.2-10.1,4.2-12,9.7-1.7-5.3-6.9-7.8-11.6-8.8-4.4-1-9.5-1.3-13.5-3.9-3.6-2.3-6.5-7.1-7.7-11.6-.8-3-1-6.2-.5-9.3Z"></path><path class="st6" d="M300.1,204.5c0-7.3,0-14.6,0-21.9,0-3.7,0-7.4,0-11.1,0-3.3-.3-7,0-10.2.6.7,1,1.9,1.5,2.7.7,1.2,1.6,2.2,2.6,3.1,1.9,1.7,4.2,2.9,6.7,3.2,4.5.6,9.2-1.7,12-5.8.7,5.9,4.5,11.2,9.4,13-2.3,4.2-4.2,8.9-5.2,13.8-.5,2.4-.8,4.8-.8,7.2,0,2.1,0,4.3.2,6.4-2.6,0-5.1,0-7.7,0-1.4,0-18.9.2-18.9-.3Z"></path><line class="st1" x1="300.3" y1="162.7" x2="300.3" y2="204.8"></line><line class="st1" x1="273.1" y1="204.3" x2="326.7" y2="204.6"></line><path class="st1" d="M267.3,223.4c.7-4.1,2.6-7.9,3.9-11.8,3.5-10.8,2.1-23.7-3.7-33.1,4.8-2.3,8.3-7.6,9-13.5,3.1,4.2,8.1,6.4,12.8,5.7s9-4.3,11.1-9.3c1.9,4.8,6.1,8.2,10.6,8.8,4.5.6,9.2-1.7,12-5.8.7,5.9,4.5,11.2,9.4,13-4.6,8.3-7.3,18.5-5.3,28,1.2,5.6,4,10.7,5,16.4.6,3.5.6,7.2-.1,10.7-.9,4.2-2.8,8.2-5.8,10.6-3.9,3.1-9,3.2-13.6,4.3-5,1.2-10.1,4.2-12,9.7-1.7-5.3-6.9-7.8-11.6-8.8-4.4-1-9.5-1.3-13.5-3.9-3.6-2.3-6.5-7.1-7.7-11.6-.8-3-1-6.2-.5-9.3Z"></path><g><g><path class="st9" d="M311.1,183.1c-.6.4-1.3.6-2,.8-.2,0-.3,0-.5,0-.3-.1-.4-.6-.3-.9,0-.3.3-.6.5-.9-.7.2-1.4.5-2.1.7-.2,0-.5.1-.7,0-.3-.2-.3-.6-.2-.9.1-.3.4-.6.6-.8-.7.3-1.4.5-2.1.7-.1,0-.2,0-.3,0-.2-.1,0-.5,0-.7.2-.3.5-.6.9-.9-1,.2-2.1-.1-2.8-.9.7-.6,1.5-1,2.4-1-.4-.8-.6-1.9-.5-2.9,0-.2,0-.3.2-.4.1,0,.2,0,.3,0,.7.2,1.3.6,1.7,1.2,0-.7.2-1.4.6-1.8.1-.1.2-.2.4-.2.3,0,.4.4.5.7.1.5.2,1.2.4,1.7.5-.2.6-1,.9-1.5.6.7.8,1.9.9,2.8,0-.5.2-1.1.5-1.5,0,0,.1-.2.2-.2.1,0,.2.2.3.3.2.7.3,1.5.1,2.2,0-.4.3-.8.5-1.1.1-.1.3-.3.4-.2.1,0,.2.2.2.4.1.6.2,1.2.2,1.8,0-.9.7-1.7,1.5-1.5-.6-.5-1.2-.9-1.8-1.4.3-.3.7-.5,1.1-.4-1,0-2-.6-2.6-1.6.6-.2,1.2,0,1.7.3-.5-.6-.8-1.4-.8-2.2.6.2,1.2.6,1.6,1.2,0-.9.2-1.7.7-2.4,0-.1.2-.2.3-.2.1,0,.2.2.2.3.1.7.2,1.4.1,2.2.3-.9,1-1.7,1.8-1.8,0,.7-.3,1.4-.6,2,.1-.2.2-.5.4-.7.2-.2.5-.2.6,0,.2.2.2.7,0,1-.2.8-.5,1.6-.7,2.4.3-.9.8-1.8,1.4-2.5.3.5.5,1.1.6,1.7,0-1,.2-1.9.8-2.6,0,.5.1,1,.2,1.6.1-.8.5-1.5,1-2.1.1-.1.2-.2.4-.1.1,0,.1.2.1.4,0,.6,0,1.1-.1,1.7.2-.9,1-1.6,1.8-1.5,0,.3-.2.5-.3.8.2-.2.4-.3.7-.4.2,0,.5.2.5.5,0,.2-.1.4-.2.5-.5.6-1,1.2-1.5,1.8.6-.6,1.6-.5,2.1,0-.4.2-.8.4-1.2.6.4,0,.7.1,1,.4,0,0,.2.2.2.3,0,.1-.1.2-.2.2-1.1.6-2,.9-3.2,1,.3.2.6.5.9.7.1,0,.2.2.3.3.1.3,0,.6-.3.8-.9.7-2,.4-3.1.2.6.5,1,1.2,1.3,1.9-.9.5-2,.5-2.8-.2.3.4.5,1,.5,1.5,0,.3,0,.8-.4.8-.1,0-.2,0-.4-.2-.4-.3-.7-.7-1-1,.3.5.4,1.1.4,1.7,0,.1,0,.3-.1.4-.1,0-.3,0-.4,0-.5-.3-1-.9-1.3-1.5,0,.5-.2,1.1-.5,1.5,0,0-.1.2-.2.2-.1,0-.2-.1-.3-.2-.3-.7-.3-1.5-.2-2.2-.4.7-1.5,2.1-2,.8-.2-.4,0-1.7.4-1.9Z"></path><path class="st9" d="M313,191.2c-.7-.3-1.5.1-2,.7s-.9,1.4-1.5,1.9c-.1,0-.2.2-.4.2-.3,0-.4-.5-.3-.8,0-.9.2-1.7.5-2.5-.5.5-1,1-1.5,1.5-.1.1-.2.2-.4.2-.2,0-.3-.4-.3-.7,0-.6.2-1.2.5-1.7-.6.4-1.2.7-1.9,1-.3.1-.9,0-.9-.3,0-.1,0-.3.1-.4.3-.4.6-.7,1.1-.9-.9.2-1.8.2-2.7.1-.1,0-.2,0-.3-.1-.2-.2,0-.6.2-.8.4-.4.9-.7,1.5-.8-.6-.2-1.1-.4-1.6-.7-.2-.1-.3-.3-.3-.5,0,0,.1-.1.2-.2.3-.2.7-.2,1.1-.1-.9-.6-1.5-1.7-1.5-2.8.8,0,1.6.2,2.2.6.2.1.3.3.5.4-.2-.6-.3-1.3-.2-1.9.5,0,1.1.4,1.4.9.3.5.5,1.1.7,1.7,0-.3,0-.6.2-.9,0-.1.1-.2.3-.2s.2.2.3.4c.2.6.4,1.3.6,1.9,0-.6.2-1.1.5-1.5,0-.1.2-.3.3-.3.3,0,.6.4.7.7.2.6.2,1.3.2,1.9.2-.7.6-1.3,1.1-1.6.2.7.2,1.5,0,2.2.2-.4.5-.7.9-.9,0,0,.2,0,.3,0,.3,0,.3.5.1.8-.2.3-.4.5-.4.8,0-.3.4-.3.6,0,.2.2.2.5.2.8,0,.6,0,1.3,0,1.9Z"></path><path class="st9" d="M316,188.1c0-.8,0-1.6.4-2.3,0,0,0-.1.2-.2.1,0,.2.1.2.3.1.3.2.6.3.9,0-.8.3-1.5.8-2.1.1-.1.3-.2.4-.1,0,0,0,.1.1.2.1.4.2.9.3,1.3.1-.9.6-1.8,1.2-2.4.3.5.4,1.1.4,1.7,0-1,.4-2.1,1.2-2.7.2.5.3,1.2.3,1.8.3-.8.8-1.5,1.4-2,.3-.3.9-.4,1,0,0,.2,0,.3,0,.5-.2.5-.4,1-.5,1.4.3-.8,2.9-1.4,2.2-.4-.2.4-.5.7-.7,1.1.4-.1.9-.2,1.3-.4-.3,1.3-1.3,2.2-2.3,2.8.3.2.6.3.9.5,0,0,.1,0,.1.2,0,0,0,0,0,.1-.5.4-1.2.3-1.8.3.7.3,1.2,1.2,1.2,2,0,0,0,.2,0,.3,0,0-.1,0-.2,0-1-.2-2-.7-2.8-1.3.5.6.8,1.5.7,2.3,0,.1,0,.2-.1.3-.2.2-.4,0-.6-.2-.7-.8-1.3-1.7-1.7-2.7.3.8.4,1.7.4,2.6,0,.4-.2,1-.5.9-.1,0-.2-.1-.3-.2-.6-.6-1.1-1.3-1.5-2.1.2.8.3,1.7.2,2.5,0,.5-.3,1.1-.7.9-.1,0-.2-.2-.3-.4-.4-.8-.6-1.6-.8-2.4.2.5.2,1.1,0,1.6-.4-.3-.5-.9-.6-1.4-.2-.5-.6-.9-1.1-.7.5-.6.7-1.1.7-1.9,0-1.1.1-2.2,1-.7Z"></path></g><g><path class="st0" d="M313.7,202.9c0-7.8-.1-15.5.3-23.2"></path><path class="st0" d="M306.8,178.8c1,0,1.9.5,2.8,1,1.6,1,3.1,2,4.2,3.7,1.2-2,2.9-3.5,4.3-5.3"></path><path class="st0" d="M306.4,187c1.4.4,2.7,1,4,1.7,1.1.6,2.5,1.3,3.4,2.3-.1-.1,3.3-2.4,3.6-2.6,1.4-.7,2.9-1.1,4.5-1.3"></path></g></g><path class="st6" d="M275.2,186.7c0,.1,0,.3.1.4.2.3.6.3.8.1.3-.2.4-.5.6-.7-.1.8,0,1.7.4,2.4.2.4.5.8.7,1.2,1.5,3.2-.2,7.3,0,10.6,0,.2,0,.3.1.5,0,.2.3.2.4.3.6.2,1.3.3,1.9.2-.6-1.1-.8-2.3-.8-3.6,0-.7,0-1.5,0-2.2.1-.6.4-1.1.5-1.7.4-1.5.2-3.1,0-4.6,1.4-1,2.6.7,3.8,1.2.7.3,1.4.5,2.2.5.2,0,2.1,0,2.1-.3-.2,3.4-.2,6.8,0,10.2.7.2,1.5.2,2.2,0-1.4-2.6-.9-5.8-.4-8.7,0-.5.2-.9.4-1.3.3-.5.7-.9,1.1-1.3,1.5-1.7,2.3-3.9,2.2-6.2,0-.9-.2-1.8-.2-2.8,0-.5,0-1.1.1-1.6,0,0,0-.2,0-.2,0,0,.2,0,.3,0,.7.3,1.5.5,2.3.3.4,0,.8-.2,1-.5.4-.5.2-1.1-.4-1.3-.6-.2-.9,0-1.4-.7-.3-.4-.5-.9-.9-1.2-.4-.3-1-.4-1.3,0,0-.7.1-1.4.1-2,0,0,0,0,0-.1,0,0,0,0-.1,0-.5.1-1,.6-1.2,1.1-.3.5-.4,1.1-.5,1.6-.2,1.1-.5,2.2-.5,3.4,0,1.2.1,2.4-.2,3.6-.2.8-.6,1.6-1.4,1.8-.6.1-1.2-.1-1.8-.4-1.2-.7-2.2-1.6-3.4-2.2-1.5-.8-3.3-1-5-.6-2.2.6-4.4,2.4-4.3,4.9Z"></path><g><path class="st3" d="M280.3,219.5c-.2-.8,0-1.8.6-2.4.6-.6,1.4-.7,2.1-.3-.2-.7,0-1.6.5-2.1.5-.5,1.3-.6,1.9-.3,0-.8.4-1.5,1-1.8.6-.3,1.3-.1,1.8.4.3-1.6,2.2-2.4,3.3-1.5.9-1.2,2.8-1.2,3.7,0,.2-.8,1.1-1.2,1.7-1,.7.2,1.2.9,1.6,1.5.5-.5,1.2-.6,1.8-.2.6.3.9,1.1.9,1.8.6-.4,1.3,0,1.6.7.3.6.4,1.4.4,2.2.5-.3,1.2-.2,1.6.3.4.5.5,1.3.2,1.9.6-.2,1.4.1,1.7.8.3.7.3,1.6-.2,2.1.6-.3,1.3,0,1.7.5.4.6.5,1.4.1,2.1.5-.4,1.1-.4,1.6,0,.5.4.7,1.1.5,1.7.4-.5,1.2,0,1.4.6.3.6.3,1.3.6,1.9.2.4.5.6.9.8,1.5.9,3.4.7,4.7-.5,1.3-1.2,1.9-3.4,1.5-5.2-.4-1.6-1.7-3-3.1-2.7-.9.2-1.6,1-2.3,1.8-.1.2-.3.4-.5.4-.5.1-.8-.5-.9-1.1-.3-2.2.7-4.5,2.4-5.5,1.7-1,3.9-.6,5.2,1,.3.4.6.9,1,1.3.4.4.8.8,1.1,1.3.6,1.2.4,2.7.7,4,.2.7.5,1.3.5,2,0,1.2-.7,2.3-1.1,3.4-.4,1.1-.5,2.4-1.2,3.2-.8.8-1.9.7-2.9,1.2-.5.3-.9.7-1.4,1-1.2.8-2.7.6-3.8-.3-.2-.2-.5-.4-.7-.4-.2,0-.4.2-.6.2-.6.3-1.3-.1-1.8-.7-.4-.6-.6-1.4-.7-2.1-.8.3-1.6.5-2.4.3-.8-.3-1.4-1.3-1.1-2.2-.3.5-1,.7-1.5.4-.5-.3-.8-1-.6-1.7-.5.2-1.1.3-1.6,0-.5-.3-.8-1.1-.4-1.5-.8.9-2.4.3-2.6-1-.2.5-.8.7-1.3.6s-.9-.5-1.3-.9c.4.2.3.9,0,1.2s-.8.2-1.2.2c.7.3.6,1.8-.1,2,.5,1.6,0,3.6-1.3,4.6-1.6,1.4-3.9.9-5.7,0-2.1-1.1-3.8-2.7-5.6-4.4-1.7-1.6-3.8-3.6-4.8-5.9-.4-1-.4-2,.2-2.9.2-.3,2-1.9,2.2-.9Z"></path><path class="st5" d="M281.4,225.2c0-1.4-1.2-2.6-2.4-2.2-1.1.3-1.8,2.1-1.2,3.3-1.2,0-2.1,1.4-2,2.7.2,1.4,1.2,2.4,2.4,2.6-.8.9-1.4,2.4-1.1,3.7.3,1.3,1.9,2.1,2.8,1.3-.4.9.2,2.1,1,2.4.8.3,1.7-.1,2.4-.8-.1,1.2.4,2.5,1.3,3,.9.6,2.1.4,2.9-.4-.1,1,.4,2,1.3,2.3.8.3,1.8,0,2.2-1,.4,1.1,1.3,1.8,2.3,1.8s1.9-.8,2.3-1.8c0,1,.3,2.1.9,2.8.7.7,1.7.8,2.5.3.8-.5,1.1-1.8.7-2.7.5.7,1.5,1,2.3.6.7-.4,1.2-1.5,1-2.4,0,1.1,1.1,1.9,2,1.6.9-.3,1.4-1.5,1.4-2.6,0,1.6,2.8,1.3,3.2.3-1,2.4,2.2,3.5,3.6,2.3.4-.4.8-1,.9-1.6.2-2.2-3.6-4.1-4-2,.2-.9,0-2.2-.6-2.7-.4-.3-2.1-.4-2.3.3.3-1.1-.3-2.5-1.3-2.9s-2.1.4-2.4,1.6c0-1.4-1.1-2.6-2.3-2.5-1.2.1-2.1,1.6-1.8,3-.1-1-.9-1.9-1.8-1.9-.9,0-1.8.8-1.9,1.8.4-1.1-.3-2.4-1.3-2.6-1-.3-2,.4-2.6,1.3.4-1,.2-2.4-.6-3.2-.8-.7-2-.8-2.8,0,.6-.9,0-2.4-.9-2.9-.9-.5-2-.1-2.9.4.2-1.1.2-1.9-.5-2.7-.4-.4-2.7-1.3-2.8,0Z"></path></g><path class="st9" d="M277.7,265.4c-11.5-1.4-22.5-8.5-29.6-19.2,5.1,2,9.9,5,15.2,6.5-5.8-7-16-6.9-21.2-14.8,3.1,1,6.3,2,9.4,3-4.5-3.8-8.8-8.1-12.7-12.7,2.5,1.2,4.9,2.4,7.4,3.6-3-4.2-6.1-8.4-9.1-12.6,5.8,1.8,11.1,5.6,15.1,10.8-3.2-7.8-7.9-14.9-13.5-20.7-.6,1.8-1.1,3.6-1.7,5.4-.4-2.1-.7-4.2-1.1-6.3-.2-1-.3-2.2.2-3.1.9-1.4,2.8-.9,4.1-.2-1.6-3.1-3.2-6.2-4.9-9.2,2.5,1.7,4.9,3.7,7.1,5.9-3.6-4.4-6.1-10-7.1-16,4.6,5.6,8.9,11.5,13,17.6-.8-8-4.1-15.6-9.2-21.1-.8,1.8-1,3.9-.8,5.9-.7-1.4-1.4-2.8-1.6-4.4-.3-1.6,0-3.4,1-4.5s2.8-1.2,3.7,0c-1.4-2.5-2.2-5.3-2.5-8.2,2,2.1,3.8,4.7,5,7.5-1.3-3.7-1.9-7.8-1.7-11.8.9,2,1.9,3.9,3.2,5.6-1.2-4.2-1.3-8.8-.2-13,1.5,4.7,3,9.3,4.5,14,.3-4.8,0-10.3,1.1-14.9,1-4.2,2.9-8.3,5.3-11.7-.3,4-.6,8.1-.9,12.1,3.7-7.5,10.1-13,17.3-15-6.1,4.7-11.2,11.1-14.9,18.5,3-4.2,7.3-7.1,11.9-8-3.2,2.9-6.1,6.3-8.7,9.9,3.8-3.8,8.5-6.5,13.4-7.5-6.8,5.4-14,11.3-17.2,20.1,2.7-3.4,6.2-6,10.1-7.1-3.1,3.7-6.1,7.4-8.5,11.7-2.4,4.3-4.1,9.3-4,14.4,1.5-4.7,4.5-8.7,8.3-11.1-2.4,4-4.3,8.5-5.5,13.2,1.9-4.2,5.1-7.5,8.9-9.1-4,4.4-6.8,10.3-8,16.6,2.4-4.6,6.3-8,10.8-9.4-3.4,3.6-6.2,7.9-8.3,12.7,1.9-2.7,4.6-4.7,7.5-5.5-6.3,5.3-9.3,15.4-7.2,24.1,0-4,1.3-7.9,3.5-11-1.5,9.1-.9,18.7,2.5,27.1,1.7,4.3,4.2,8.1,7.2,11.3,2,2.1,4.3,4.6,6.8,5.9,3,1.6,6.7,2.3,9.9,3.2,8.2,2.2,16.5,2.8,24.7,4.4,5.3,1,11.1,2.4,14.6,7.2-1.9,1.4-4.3,1.4-6.4.7-2.1-.7-4.1-2-6.1-3-12.7-6.5-28-3.6-40.2,2.8-1,.5-2.1,1.1-3.3,1.1-1.1,0-2.4-.9-2.5-2.2-.2-1.7,1.3-2.9,2.6-3.6,6.1-3.1,13.3-3.2,19.8-3.2-5.5-.8-11-2.1-16.5-2.7Z"></path><g><g><path class="st9" d="M343.5,165.9c-3.2,1.3-6.8,2.4-10,1.1-1.8-.8-3.4-2.3-4.8-3.8-1.1-1.2-2.1-2.4-3.1-3.7.9-.5,1.9-.7,2.8-.8-1.3-1.9-3.1-3.5-5-4.4,1.6-1.8,4-2.7,6.3-2.2-1.8-2.3-2.2-5.6-2.5-8.7,3.3-.7,6.9.3,9.5,2.7.3-2.6.5-5.3.8-7.9,2.6,1.9,5,4.2,7.1,6.8.9,1.1,1.7,2.2,2.3,3.5,1,2.2,1.1,4.8,1,7.2-.2,3.3-1,6.7-2.6,9.5,1.4,3.6,2.3,7.5,2.7,11.4.4,3.8,0,7.5,0,11.3-.2-3.9-.5-7.8-1.1-11.6-.2-.9-2.5-10.6-3.3-10.3Z"></path><path class="st9" d="M348.3,199.7c0-.7,0-1.3,0-2-6.5-2.6-13.2-4.6-16.4-12.5,1,.2,2.1.3,3.1.5-.2-1.8-.7-3.6-1.4-5.2,2.2-.6,4.6-.2,6.5,1.2-1.3-2.6-2.6-5.3-2.5-8.2,1.1.6,2.3,1,3.5,1.4.5-1.8,1-3.6,1.5-5.4,1.7,1.4,3.1,3.2,4.1,5.4.7-2.6,2.2-4.9,4.1-6.5,1.3,2.9,2.1,6,2.4,9.3.9-1.9,2.2-3.6,3.8-4.8,0,1.2.5,2.2.9,3.3,1.7,4.1,1.9,9.1.4,13.3,1.2-.4,2.4-.7,3.6-.8-1.4,2.2-2.8,4.4-4.6,6.2-.9,1-1.8,1.5-2.9,2-.7.3-1.4.6-2.1.9-1.2.5-1.3.5-1.7,2-1.2,4.8-2.4,9.6-3,14.6-.3,2.3-.4,4.6-.6,6.8,0,.7-.2,6.8.4,6.9-.4-.1-.6-.7-.6-1.2-.7-4.9-.6-10-.1-14.9.4-4,1.5-8.2,1.7-12.3Z"></path><path class="st9" d="M341.9,234.8c.1-3.6-2.7-6.7-4.2-9.5-1.9-3.4-3.4-7-4.6-10.8-1.6-4.9-2.2-10.6-2.3-15.8.9.6,1.7,1.2,2.6,1.8,0-2.3,0-4.6,0-7,2.4,1.2,4.4,3.3,5.7,5.9.1-1.1,0-2.2-.2-3.3,2.4,1.5,4.2,4,5.6,6.8s2.1,5.8,2.9,8.9c2.9-5.7,7.4-10.3,12.6-12.9-.1,4.1-.2,8.1-.4,12.2,1.7-1.6,3.4-3.3,5-4.9-.7,3.1-.6,6.3-1,9.5-.6,5-3.5,9.4-6.8,12.5-3.1,2.8-6.7,4.6-10.4,5.9-.4.2-.9.3-1.3.7-.2.2-.4.5-.6.9-3,5.6-5.4,12.1-10.2,15.7.3-.2.9-2.1,1.2-2.5.5-.7,1-1.2,1.5-2,1.3-2.2,2.5-4.6,3.5-7,.6-1.3,1.2-2.7,1.4-4.2,0-.2,0-.5,0-.7Z"></path><path class="st9" d="M312.8,263.3c2.2-.9,4.4-1.9,6.2-3.6.8-.7,1.4-1.6,2.2-2.2,1.5-1.2,3.3-1.7,5.1-2.2.4-.1,1-.2,1.3.1.4.4.2,1.2-.2,1.6s-1,.5-1.5.6c-1.8.4-3.5,1.3-4.9,2.6,1.4,0,2.9,0,3.9-1.1.6-.7.9-1.8,1-2.8.3-2.1,0-4.2.2-6.3.5-3.5,2.4-6.5,4.6-9.1,2.2-2.5,4.6-4.8,6.5-7.6.6,2.8.3,5.9-.8,8.5,3.3-3,8.1-2.2,11.9-4-.9,4.2-2.5,8.2-4.9,11.5,3-.2,5.9-.5,8.9-.7-1.4,1.3-2.7,2.8-3.9,4.4-1.3,1.8-2.5,3.9-4.1,5.4-3.6,3.5-10.1,4.5-14.5,2.4-.2,0-.4-.2-.5-.2-.2,0-.3,0-.5.2-4.6,2.2-9.1,4-14,5.3-1.8.5-16.4,4.5-16.6,2.3-.2-2.4,4.8-2.5,5.7-2.7,3-.5,5.9-1.4,8.8-2.5Z"></path></g><g><path class="st7" d="M349.7,160.8c.5,0,.5-.8,0-.8s-.5.8,0,.8h0Z"></path><path class="st7" d="M352.5,164.3s0,0,.1,0c0,0,.1,0,.2,0,0,0,0,0,.1,0,0,0,0,0,0-.1,0,0,0-.1,0-.2h0c0-.2,0-.2-.1-.3h0c0-.1-.1-.1-.2-.1,0,0,0,0-.1,0,0,0-.1,0-.2,0,0,0,0,0-.1,0,0,0,0,0,0,.1,0,0,0,.1,0,.2h0c0,.2,0,.2.1.3h0c0,.1.1.1.2.1h0Z"></path><path class="st7" d="M339.2,170.4c.5,0,.5-.8,0-.8s-.5.8,0,.8h0Z"></path><path class="st7" d="M345.7,200.2c.5,0,.5-.8,0-.8s-.5.8,0,.8h0Z"></path><path class="st7" d="M352.9,200.3c.5,0,.5-.8,0-.8s-.5.8,0,.8h0Z"></path><path class="st7" d="M354.9,233.7c.5,0,.5-.8,0-.8s-.5.8,0,.8h0Z"></path><path class="st7" d="M352,238.4c.5,0,.5-.8,0-.8s-.5.8,0,.8h0Z"></path><path class="st7" d="M337.7,231c.5,0,.5-.8,0-.8s-.5.8,0,.8h0Z"></path></g></g><path class="st7" d="M294.9,254.7c-2.7-1.5-6-1.5-8.9-.4-1.2.5-2.5,1.5-2.3,2.9.1.9.8,1.5,1.4,1.9,2.4,1.5,5.1,1.5,7.7,1.8,1.2.1,2.6.2,3.8.8.5.2,1,.6,1.3,1,.1.1.7,1.4.7,1.4-.5,0-1,.1-1.3.5-1.1,1.4-.1,4.7,1.4,5.2,0,0-2.1,2.3-2.3,2.5-1,.7-2,1.2-3.1,1.5-2.2.5-4.9.1-6.9-1-1.9-1-3.4-2.6-5.2-3.9-2.9-2.1-6.3-3.3-9.7-3.3-1.3,0-2.6.2-3.8.9-.5.3-1,.9-1,1.6,0,.4.2.7.5,1,1,1.1,2.6.8,3.9.6,3.4-.5,7.1.2,9.9,2.6,2.2,1.9,3.9,4.2,6.5,5.2,2.5,1,5.3.9,7.6-.5,1.4-.8,2.6-2,3.6-3.2.6-.7,2.1-3.7,3-3.3.3,1.4,1.1,2.5,2,3.4,4.1,4.2,10.5,4.7,15.2,1.4,2.8-2,5.1-5.2,8.4-5.5,1.8-.2,3.7.7,5.5.4.5,0,1.1-.4,1.3-1,0-.4,0-.7-.2-1.1-.5-1.2-1.4-2.1-2.5-2.7-2.1-1.2-4.7-1.2-6.8-.1-2.4,1.2-4,3.3-5.9,5.2-1.9,1.8-4.3,3.1-6.8,3.1-3.2,0-5.1-2.2-7.5-4.1,1.1-.6,1.9-2,1.8-3.5s-1.1-2.7-2.3-3c2.4-1.5,5-1.4,7.7-2,2.3-.5,4.8-1.3,6.4-3.3.3-.3.5-.7.6-1.2.1-1-.7-1.7-1.5-2.1-5.5-2.9-12.5-.6-14.6,6.3-.1.5-.3.9-.5,1.3-.3.4-.7.6-1.1.5-1.2-3.3-3.2-6.6-6-8.2Z"></path></svg>